<svg xmlns="http://www.w3.org/2000/svg" viewBox="0 0 1024 1024" role="img" aria-labelledby="title desc">
  <title id="title">Nakar profil logosu</title>
  <desc id="desc">Gece mavisi daire içinde mor bir müzik notası</desc>
  <defs>
    <linearGradient id="bg" x1="176" y1="128" x2="848" y2="896" gradientUnits="userSpaceOnUse">
      <stop stop-color="#242738"/>
      <stop offset="1" stop-color="#161826"/>
    </linearGradient>
    <linearGradient id="accent" x1="340" y1="292" x2="700" y2="752" gradientUnits="userSpaceOnUse">
      <stop stop-color="#C4BEF4"/>
      <stop offset="0.52" stop-color="#A79DE8"/>
      <stop offset="1" stop-color="#8173CF"/>
    </linearGradient>
    <filter id="glow" x="-40%" y="-40%" width="180%" height="180%">
      <feGaussianBlur stdDeviation="22"/>
    </filter>
  </defs>

  <rect width="1024" height="1024" fill="#161826"/>
  <circle cx="512" cy="512" r="404" fill="url(#bg)" stroke="#3A3D59" stroke-width="14"/>
  <circle cx="512" cy="512" r="334" fill="none" stroke="#9184D9" stroke-opacity="0.12" stroke-width="2"/>

  <g fill="#9184D9" opacity="0.34" filter="url(#glow)">
    <rect x="488" y="300" width="62" height="382" rx="31"/>
    <path d="M519 300 742 359V466L519 407Z"/>
    <ellipse cx="414" cy="682" rx="121" ry="82" transform="rotate(-13 414 682)"/>
  </g>
  <g fill="url(#accent)">
    <rect x="488" y="300" width="62" height="382" rx="31"/>
    <path d="M519 300 742 359V466L519 407Z"/>
    <ellipse cx="414" cy="682" rx="121" ry="82" transform="rotate(-13 414 682)"/>
  </g>

  <g fill="#C4BEF4">
    <circle cx="344" cy="766" r="8" opacity="0.46"/>
    <circle cx="382" cy="788" r="6" opacity="0.32"/>
    <circle cx="422" cy="801" r="4" opacity="0.2"/>
  </g>
</svg>
